<svg xmlns="http://www.w3.org/2000/svg" xmlns:xlink="http://www.w3.org/1999/xlink" width="500" zoomAndPan="magnify" viewBox="0 0 375 374.999991" height="500" preserveAspectRatio="xMidYMid meet" version="1.0"><path fill="#123f7b" d="M 241.476562 327.390625 C 262.367188 347.726562 298.148438 355.398438 328.679688 338.945312 C 351.488281 326.632812 371.675781 301.347656 369.203125 265.519531 C 367.539062 241.246094 325.601562 172.007812 301.882812 133.097656 C 283.96875 103.675781 269.03125 71.78125 243.746094 47.710938 C 191.210938 -2.25 126.214844 26.816406 104.765625 81.019531 C 122.78125 71.277344 136.207031 64.769531 168.25 70.269531 C 226.738281 80.3125 256.617188 159.996094 283.816406 207.433594 C 290.425781 218.9375 296.886719 230.242188 303.902344 242.253906 C 308.292969 249.773438 313.289062 258.605469 315.355469 267.03125 C 321.058594 290.296875 298.148438 302.761719 278.515625 286.261719 C 252.78125 264.609375 226.789062 205.164062 214.375 183.058594 C 194.191406 147.027344 169.914062 109.632812 117.886719 118.414062 C 65.90625 127.242188 45.015625 181.445312 16.855469 231.453125 C -15.796875 289.339844 28.765625 355.851562 93.964844 346.71875 C 113.140625 344.042969 126.363281 335.464844 136.660156 324.210938 C 143.675781 316.589844 158.460938 294.738281 162.296875 284.898438 L 132.671875 233.675781 C 132.167969 234.128906 131.914062 234.53125 130.402344 236.351562 L 110.71875 269.757812 C 88.414062 307.910156 56.925781 298.523438 58.992188 272.886719 C 60.457031 253.910156 79.027344 228.324219 84.78125 218.535156 C 101.789062 189.46875 127.523438 142.585938 158.15625 190.578125 C 163.757812 199.410156 169.914062 211.167969 174.054688 218.234375 C 178.039062 224.996094 181.167969 230.699219 185.054688 237.511719 C 203.121094 265.769531 218.3125 304.832031 241.476562 327.390625 Z M 241.476562 327.390625 " fill-opacity="1" fill-rule="evenodd"/></svg>