<svg xmlns="http://www.w3.org/2000/svg" xmlns:xlink="http://www.w3.org/1999/xlink" width="500" zoomAndPan="magnify" viewBox="0 0 375 374.999991" height="500" preserveAspectRatio="xMidYMid meet" version="1.0"><path fill="#ffffff" d="M 242.269531 327.765625 C 263.566406 348.496094 300.039062 356.3125 331.160156 339.542969 C 354.410156 326.992188 374.988281 301.222656 372.46875 264.699219 C 370.769531 239.953125 328.023438 169.375 303.84375 129.714844 C 285.582031 99.726562 270.355469 67.214844 244.585938 42.675781 C 191.035156 -8.25 124.777344 21.378906 102.914062 76.628906 C 121.28125 66.699219 134.964844 60.0625 167.628906 65.671875 C 227.25 75.90625 257.703125 157.132812 285.429688 205.488281 C 292.167969 217.21875 298.753906 228.738281 305.902344 240.984375 C 310.378906 248.648438 315.46875 257.648438 317.578125 266.242188 C 323.390625 289.957031 300.039062 302.660156 280.027344 285.839844 C 253.792969 263.773438 227.300781 203.171875 214.644531 180.640625 C 194.070312 143.914062 169.324219 105.796875 116.289062 114.746094 C 63.304688 123.75 42.007812 178.996094 13.304688 229.972656 C -19.976562 288.976562 25.445312 356.777344 91.90625 347.464844 C 111.453125 344.738281 124.933594 335.996094 135.425781 324.523438 C 142.578125 316.757812 157.648438 294.480469 161.558594 284.449219 L 131.363281 232.238281 C 130.847656 232.699219 130.589844 233.113281 129.046875 234.964844 L 108.984375 269.019531 C 86.25 307.90625 54.148438 298.339844 56.257812 272.207031 C 57.75 252.867188 76.679688 226.785156 82.542969 216.804688 C 99.878906 187.175781 126.113281 139.386719 157.339844 188.308594 C 163.050781 197.308594 169.324219 209.296875 173.542969 216.496094 C 177.609375 223.390625 180.796875 229.203125 184.757812 236.148438 C 203.175781 264.953125 218.65625 304.769531 242.269531 327.765625 Z M 242.269531 327.765625 " fill-opacity="1" fill-rule="evenodd"/></svg>