<svg xmlns="http://www.w3.org/2000/svg" xmlns:xlink="http://www.w3.org/1999/xlink" width="500" zoomAndPan="magnify" viewBox="0 0 375 374.999991" height="500" preserveAspectRatio="xMidYMid meet" version="1.0"><defs><g/></defs><path fill="#123f7b" d="M 215.628906 234.160156 C 226.449219 244.691406 244.972656 248.660156 260.78125 240.144531 C 272.59375 233.769531 283.042969 220.675781 281.765625 202.125 C 280.902344 189.558594 259.1875 153.707031 246.90625 133.5625 C 237.632812 118.328125 229.898438 101.8125 216.804688 89.351562 C 189.605469 63.484375 155.949219 78.53125 144.847656 106.597656 C 154.175781 101.554688 161.125 98.183594 177.71875 101.03125 C 208 106.230469 223.46875 147.488281 237.554688 172.050781 C 240.976562 178.007812 244.320312 183.859375 247.953125 190.078125 C 250.226562 193.972656 252.8125 198.546875 253.882812 202.910156 C 256.835938 214.953125 244.972656 221.410156 234.808594 212.863281 C 221.484375 201.65625 208.027344 170.875 201.597656 159.429688 C 191.148438 140.773438 178.578125 121.410156 151.640625 125.957031 C 124.726562 130.53125 113.910156 158.59375 99.328125 184.488281 C 82.421875 214.457031 105.496094 248.898438 139.253906 244.167969 C 149.183594 242.78125 156.03125 238.339844 161.359375 232.511719 C 164.992188 228.566406 172.648438 217.253906 174.632812 212.160156 L 159.296875 185.636719 C 159.035156 185.871094 158.902344 186.082031 158.121094 187.023438 L 147.929688 204.320312 C 136.378906 224.074219 120.074219 219.214844 121.148438 205.941406 C 121.90625 196.117188 131.519531 182.867188 134.5 177.796875 C 143.304688 162.746094 156.628906 138.472656 172.492188 163.324219 C 175.390625 167.894531 178.578125 173.984375 180.722656 177.640625 C 182.785156 181.144531 184.40625 184.097656 186.417969 187.625 C 195.773438 202.253906 203.636719 222.480469 215.628906 234.160156 Z M 215.628906 234.160156 " fill-opacity="1" fill-rule="evenodd"/><g fill="#123f7b" fill-opacity="1"><g transform="translate(6.280539, 288.777019)"><g><path d="M 0.625 0 L 12.265625 -28.671875 L 12.84375 -28.671875 L 24.5 0 L 18.265625 0 L 17.140625 -2.984375 L 7.96875 -2.984375 L 6.890625 0 Z M 9.984375 -8.171875 L 15.09375 -8.171875 L 12.578125 -15.359375 Z M 9.984375 -8.171875 "/></g></g></g><g fill="#123f7b" fill-opacity="1"><g transform="translate(41.887927, 288.777019)"><g><path d="M 23.0625 -1.703125 C 22.007812 -1.109375 20.878906 -0.648438 19.671875 -0.328125 C 18.472656 -0.00390625 17.21875 0.15625 15.90625 0.15625 C 13.632812 0.15625 11.628906 -0.226562 9.890625 -1 C 8.148438 -1.78125 6.6875 -2.820312 5.5 -4.125 C 4.3125 -5.425781 3.410156 -6.894531 2.796875 -8.53125 C 2.191406 -10.164062 1.875 -11.859375 1.84375 -13.609375 C 1.820312 -15.367188 2.085938 -17.070312 2.640625 -18.71875 C 3.203125 -20.375 4.0625 -21.878906 5.21875 -23.234375 C 6.382812 -24.585938 7.859375 -25.679688 9.640625 -26.515625 C 11.421875 -27.359375 13.507812 -27.820312 15.90625 -27.90625 C 17.019531 -27.957031 18.03125 -27.90625 18.9375 -27.75 C 19.851562 -27.59375 20.613281 -27.421875 21.21875 -27.234375 C 21.832031 -27.054688 22.21875 -26.945312 22.375 -26.90625 L 21.71875 -21.28125 C 21.175781 -21.519531 20.4375 -21.757812 19.5 -22 C 18.570312 -22.25 17.375 -22.347656 15.90625 -22.296875 C 14.300781 -22.242188 12.9375 -21.894531 11.8125 -21.25 C 10.695312 -20.601562 9.8125 -19.773438 9.15625 -18.765625 C 8.5 -17.765625 8.066406 -16.671875 7.859375 -15.484375 C 7.648438 -14.296875 7.660156 -13.109375 7.890625 -11.921875 C 8.128906 -10.734375 8.585938 -9.640625 9.265625 -8.640625 C 9.953125 -7.648438 10.847656 -6.859375 11.953125 -6.265625 C 13.066406 -5.671875 14.382812 -5.375 15.90625 -5.375 C 16.164062 -5.375 16.421875 -5.394531 16.671875 -5.4375 C 16.929688 -5.476562 17.191406 -5.507812 17.453125 -5.53125 L 17.453125 -13.859375 L 23.0625 -13.859375 Z M 23.0625 -1.703125 "/></g></g></g><g fill="#123f7b" fill-opacity="1"><g transform="translate(78.269347, 288.777019)"><g><path d="M 0.625 0 L 12.265625 -28.671875 L 12.84375 -28.671875 L 24.5 0 L 18.265625 0 L 17.140625 -2.984375 L 7.96875 -2.984375 L 6.890625 0 Z M 9.984375 -8.171875 L 15.09375 -8.171875 L 12.578125 -15.359375 Z M 9.984375 -8.171875 "/></g></g></g><g fill="#123f7b" fill-opacity="1"><g transform="translate(113.876734, 288.777019)"><g><path d="M 8.625 0 L 3.09375 0 L 3.09375 -27.640625 L 13.96875 -27.640625 C 15.519531 -27.640625 16.84375 -27.328125 17.9375 -26.703125 C 19.03125 -26.085938 19.898438 -25.273438 20.546875 -24.265625 C 21.191406 -23.253906 21.625 -22.132812 21.84375 -20.90625 C 22.0625 -19.6875 22.0625 -18.46875 21.84375 -17.25 C 21.625 -16.039062 21.1875 -14.929688 20.53125 -13.921875 C 19.875 -12.921875 18.992188 -12.109375 17.890625 -11.484375 C 16.796875 -10.867188 15.488281 -10.5625 13.96875 -10.5625 L 8.625 -10.5625 Z M 8.625 -15.953125 L 13.5 -15.953125 C 14.25 -15.953125 14.84375 -16.15625 15.28125 -16.5625 C 15.726562 -16.976562 16.023438 -17.492188 16.171875 -18.109375 C 16.328125 -18.734375 16.328125 -19.351562 16.171875 -19.96875 C 16.023438 -20.59375 15.726562 -21.109375 15.28125 -21.515625 C 14.84375 -21.929688 14.25 -22.140625 13.5 -22.140625 L 8.625 -22.140625 Z M 8.625 -15.953125 "/></g></g></g><g fill="#123f7b" fill-opacity="1"><g transform="translate(147.549047, 288.777019)"><g><path d="M 0.625 0 L 12.265625 -28.671875 L 12.84375 -28.671875 L 24.5 0 L 18.265625 0 L 17.140625 -2.984375 L 7.96875 -2.984375 L 6.890625 0 Z M 9.984375 -8.171875 L 15.09375 -8.171875 L 12.578125 -15.359375 Z M 9.984375 -8.171875 "/></g></g></g><g fill="#123f7b" fill-opacity="1"><g transform="translate(183.156426, 288.777019)"><g><path d="M 9.875 0 L 9.875 -12.46875 L 0.234375 -27.671875 L 6.96875 -27.671875 L 12.625 -18.15625 L 18.265625 -27.671875 L 25.046875 -27.671875 L 15.359375 -12.46875 L 15.359375 0 Z M 9.875 0 "/></g></g></g><g fill="#123f7b" fill-opacity="1"><g transform="translate(218.608999, 288.777019)"><g><path d="M 0.625 0 L 12.265625 -28.671875 L 12.84375 -28.671875 L 24.5 0 L 18.265625 0 L 17.140625 -2.984375 L 7.96875 -2.984375 L 6.890625 0 Z M 9.984375 -8.171875 L 15.09375 -8.171875 L 12.578125 -15.359375 Z M 9.984375 -8.171875 "/></g></g></g><g fill="#123f7b" fill-opacity="1"><g transform="translate(254.216394, 288.777019)"><g><path d="M 3.09375 -27.671875 L 8.625 -27.671875 L 8.625 -5.53125 L 17.421875 -5.53125 L 17.421875 0 L 3.09375 0 Z M 3.09375 -27.671875 "/></g></g></g><g fill="#123f7b" fill-opacity="1"><g transform="translate(283.631523, 288.777019)"><g><path d="M 17.421875 0 L 3.09375 0 L 3.09375 -27.671875 L 16.953125 -27.671875 L 16.953125 -22.140625 L 8.625 -22.140625 L 8.625 -16.609375 L 15.90625 -16.609375 L 15.90625 -11.0625 L 8.625 -11.0625 L 8.625 -5.53125 L 17.421875 -5.53125 Z M 17.421875 0 "/></g></g></g><g fill="#123f7b" fill-opacity="1"><g transform="translate(313.472359, 288.777019)"><g><path d="M 16.875 0 L 11.296875 -10.5625 L 8.625 -10.5625 L 8.625 0 L 3.09375 0 L 3.09375 -27.671875 L 14.015625 -27.671875 C 15.660156 -27.671875 17.054688 -27.328125 18.203125 -26.640625 C 19.359375 -25.960938 20.257812 -25.070312 20.90625 -23.96875 C 21.550781 -22.875 21.945312 -21.6875 22.09375 -20.40625 C 22.25 -19.132812 22.148438 -17.882812 21.796875 -16.65625 C 21.453125 -15.4375 20.859375 -14.351562 20.015625 -13.40625 C 19.179688 -12.46875 18.082031 -11.804688 16.71875 -11.421875 L 23.140625 0 Z M 8.625 -15.953125 L 13.5 -15.953125 C 14.25 -15.953125 14.847656 -16.15625 15.296875 -16.5625 C 15.753906 -16.976562 16.0625 -17.492188 16.21875 -18.109375 C 16.375 -18.734375 16.375 -19.351562 16.21875 -19.96875 C 16.0625 -20.59375 15.753906 -21.109375 15.296875 -21.515625 C 14.847656 -21.929688 14.25 -22.140625 13.5 -22.140625 L 8.625 -22.140625 Z M 8.625 -15.953125 "/></g></g></g><g fill="#123f7b" fill-opacity="1"><g transform="translate(347.531688, 288.777019)"><g><path d="M 13.203125 0 L 7.65625 0 L 7.65625 -22.140625 L 0.78125 -22.140625 L 0.78125 -27.640625 L 20.09375 -27.640625 L 20.09375 -22.140625 L 13.203125 -22.140625 Z M 13.203125 0 "/></g></g></g></svg>